#!OML:ASF F:\VICON\USERDATA\INSTALL\Justin_Nancy\Justin_Nancy.ASF
:FULLY-SPECIFIED
:DEGREES
400
root -0.685523 18.2565 19.2269 -6.48696 5.75817 -0.275179
lowerback 2.37208 0.354635 -2.08387
upperback 0.632071 0.435383 1.44963
thorax -0.708432 0.220526 2.64357
lowerneck -11.3215 -5.02754 -11.2466
upperneck 20.0008 -6.82015 9.66446
head 8.82477 -3.1311 4.40436
rclavicle -1.14301e-014 7.95139e-016
rhumerus -25.3418 0.551504 -76.9243
rradius 76.8141
rwrist -1.37353
rhand -23.1255 12.8125
rfingers 7.12502
rthumb 3.32192 -17.1414
lclavicle -1.14301e-014 7.95139e-016
lhumerus -37.6743 6.89843 61.6477
lradius 73.9194
lwrist 7.81085
lhand -26.9043 22.7447
lfingers 7.12502
lthumb -0.327663 52.7242
rfemur -1.22966 3.96446 24.0804
rtibia 27.2904
rfoot 1.09586 2.95775
rtoes 12.1487
lfemur -10.3925 -11.5632 -14.949
ltibia 35.2165
lfoot 3.91294 0.651111
ltoes -8.46316
401
root -0.691268 18.3041 19.2698 -6.05085 5.74353 0.0222377
lowerback 2.37529 0.314822 -2.13259
upperback 0.600338 0.380685 1.4119
thorax -0.739457 0.193962 2.63373
lowerneck -11.5153 -5.06937 -11.3733
upperneck 19.9692 -6.80797 9.56747
head 8.85066 -3.13885 4.38949
rclavicle -8.49804e-015 -1.07344e-014
rhumerus -25.9919 -0.336966 -76.8267
rradius 75.5991
rwrist -0.257641
rhand -22.7356 12.6837
rfingers 7.12502
rthumb 3.69843 -17.264
lclavicle -8.49804e-015 -1.07344e-014
lhumerus -37.9345 7.27629 61.172
lradius 72.9211
lwrist 8.08945
lhand -26.3479 21.8359
lfingers 7.12502
lthumb 0.209686 51.8155
rfemur -1.17256 3.89588 23.6477
rtibia 26.5813
rfoot 1.69692 3.31397
rtoes 10.7342
lfemur -10.1098 -11.5832 -15.2584
ltibia 34.1824
lfoot 4.33698 0.832158
ltoes -7.91724
402
root -0.699537 18.348 19.3081 -5.57372 5.64398 0.33599
lowerback 2.30123 0.298302 -2.23183
upperback 0.629797 0.357337 1.38387
thorax -0.666719 0.181034 2.66183
lowerneck -11.7607 -5.00939 -11.4588
upperneck 19.956 -6.65522 9.4689
head 8.87388 -3.07613 4.38448
rclavicle 1.15544e-014 1.39149e-014
rhumerus -26.3206 -1.07107 -76.7002
rradius 74.1858
rwrist 0.732003
rhand -22.4976 12.6645
rfingers 7.12502
rthumb 3.92823 -17.279
lclavicle 1.15544e-014 1.39149e-014
lhumerus -38.2875 7.63629 60.7272
lradius 72.043
lwrist 8.30703
lhand -26.2149 21.8535
lfingers 7.12502
lthumb 0.338198 51.833
rfemur -1.20626 3.84056 23.2452
rtibia 25.9971
rfoot 2.17154 3.6683
rtoes 9.20697
lfemur -9.86948 -11.5204 -15.5386
ltibia 33.1433
lfoot 4.71884 1.06352
ltoes -7.44873
403
root -0.707033 18.3853 19.3375 -4.92195 5.71414 0.69333
lowerback 2.19959 0.257376 -2.34394
upperback 0.593115 0.301379 1.30325
thorax -0.644 0.153208 2.64385
lowerneck -11.8636 -4.9706 -11.3347
upperneck 19.6654 -6.5394 9.21954
head 8.76801 -3.03288 4.28381
rclavicle -1.09332e-014 2.38542e-015
rhumerus -26.8416 -1.95371 -76.6015
rradius 72.8924
rwrist 1.51039
rhand -22.2988 13.0199
rfingers 7.12502
rthumb 4.12025 -16.92
lclavicle -1.09332e-014 2.38542e-015
lhumerus -38.5138 7.75123 60.4299
lradius 71.1977
lwrist 8.49895
lhand -26.4272 22.2286
lfingers 7.12502
lthumb 0.133097 52.2083
rfemur -1.515 3.69353 22.7756
rtibia 25.471
rfoot 2.54497 3.94757
rtoes 9.51975
lfemur -9.8942 -11.5575 -15.822
ltibia 32.088
lfoot 5.13013 1.16234
ltoes -6.86147
404
root -0.714928 18.4205 19.3622 -4.28137 5.80391 0.80188
lowerback 2.23604 0.227564 -2.21475
upperback 0.446972 0.263601 1.30715
thorax -0.811363 0.138137 2.57587
lowerneck -11.8717 -5.02601 -11.3148
upperneck 19.4536 -6.55983 9.01055
head 8.69298 -3.06014 4.20104
rclavicle 6.43565e-015 1.98785e-015
rhumerus -27.4598 -2.77461 -76.4157
rradius 71.5015
rwrist 1.92034
rhand -22.1622 13.3343
rfingers 7.12502
rthumb 4.2521 -16.603
lclavicle 6.43565e-015 1.98785e-015
lhumerus -38.8087 7.54291 60.3112
lradius 70.4
lwrist 8.60822
lhand -26.4896 22.5691
lfingers 7.12502
lthumb 0.0729021 52.5488
rfemur -1.86798 3.57338 22.6006
rtibia 24.9396
rfoot 2.958 4.049
rtoes 10.2042
lfemur -10.0016 -11.6575 -15.8053
ltibia 31.0762
lfoot 5.57663 1.16807
ltoes -6.39705
405
root -0.725347 18.4535 19.3967 -3.83965 5.50263 0.941719
lowerback 2.23314 0.302564 -2.19901
upperback 0.425354 0.364709 1.37913
thorax -0.83847 0.189373 2.63807
lowerneck -11.8951 -5.01434 -11.4227
upperneck 19.2968 -6.47605 8.86645
head 8.63444 -3.04103 4.17632
rclavicle -3.59055e-015 5.1684e-015
rhumerus -27.756 -3.41723 -76.1939
rradius 69.8284
rwrist 1.95007
rhand -21.9131 13.339
rfingers 7.12502
rthumb 4.49271 -16.5934
lclavicle -3.59055e-015 5.1684e-015
lhumerus -39.0538 7.46906 60.2686
lradius 69.3653
lwrist 8.59151
lhand -26.4749 22.6674
lfingers 7.12502
lthumb 0.087069 52.6471
rfemur -2.03645 3.83628 22.4495
rtibia 24.4055
rfoot 3.37473 4.27142
rtoes 9.84069
lfemur -9.77512 -11.5388 -15.8596
ltibia 30.1383
lfoot 5.78542 1.40168
ltoes -6.92803
406
root -0.726626 18.479 19.4401 -3.42575 5.31533 1.35197
lowerback 2.0701 0.282008 -2.38613
upperback 0.505401 0.336183 1.37125
thorax -0.664237 0.17202 2.73695
lowerneck -12.0382 -4.91477 -11.6124
upperneck 19.0927 -6.26436 8.85067
head 8.5743 -2.95196 4.22334
rclavicle 8.69683e-017 -1.90833e-014
rhumerus -27.8809 -3.91972 -76.0474
rradius 68.1532
rwrist 1.77391
rhand -21.5109 13.0587
rfingers 7.12502
rthumb 4.88108 -16.8651
lclavicle 8.69683e-017 -1.90833e-014
lhumerus -39.2406 7.65778 60.2036
lradius 68.1739
lwrist 8.62899
lhand -26.6937 22.5172
lfingers 7.12502
lthumb -0.124264 52.497
rfemur -2.08065 3.75593 21.9015
rtibia 23.8914
rfoot 3.60576 4.7874
rtoes 9.03572
lfemur -9.45182 -11.4083 -16.2922
ltibia 29.2703
lfoot 5.92625 1.61249
ltoes -7.3543
407
root -0.726772 18.4972 19.4741 -2.9542 5.29281 1.54947
lowerback 2.0147 0.218385 -2.27349
upperback 0.541255 0.254654 1.35427
thorax -0.590575 0.129596 2.6584
lowerneck -12.5052 -4.86515 -11.7529
upperneck 19.1355 -6.12879 8.91948
head 8.66615 -2.88015 4.28195
rclavicle 3.03147e-015 -3.97569e-016
rhumerus -28.1679 -4.41739 -75.9687
rradius 66.6817
rwrist 1.09942
rhand -21.1596 12.3964
rfingers 7.12502
rthumb 5.22026 -17.5193
lclavicle 3.03147e-015 -3.97569e-016
lhumerus -39.5296 7.56227 60.1998
lradius 67.2839
lwrist 8.79531
lhand -26.9724 22.9928
lfingers 7.12502
lthumb -0.393465 52.9722
rfemur -2.17454 3.52544 21.5975
rtibia 23.4284
rfoot 3.78624 4.88715
rtoes 9.33506
lfemur -9.34185 -11.277 -16.4345
ltibia 28.4674
lfoot 6.0908 1.63963
ltoes -7.32053
408
root -0.734614 18.5088 19.4991 -2.42737 5.19058 1.7904
lowerback 2.14068 0.216008 -2.28525
upperback 0.433818 0.248659 1.35095
thorax -0.770989 0.130425 2.6613
lowerneck -12.7198 -4.88293 -11.8626
upperneck 19.1964 -6.0979 8.87252
head 8.72546 -2.87299 4.28591
rclavicle -1.68097e-014 -9.54166e-015
rhumerus -28.5813 -4.89784 -75.8595
rradius 65.1392
rwrist -0.135011
rhand -20.857 11.6122
rfingers 7.12502
rthumb 5.51241 -18.2961
lclavicle -1.68097e-014 -9.54166e-015
lhumerus -40.1674 7.11301 60.2621
lradius 66.6758
lwrist 8.82054
lhand -26.4358 22.7766
lfingers 7.12502
lthumb 0.124793 52.7563
rfemur -2.41793 3.65262 21.3444
rtibia 23.0636
rfoot 3.94699 4.62821
rtoes 10.1616
lfemur -9.39718 -10.96 -16.5532
ltibia 27.7534
lfoot 6.1591 1.54843
ltoes -7.35664
409
root -0.744052 18.5169 19.5242 -1.93451 4.97831 2.10601
lowerback 2.30147 0.276286 -2.42871
upperback 0.319084 0.322403 1.36498
thorax -0.984301 0.172231 2.75374
lowerneck -12.7633 -4.91553 -11.8793
upperneck 19.1121 -6.07347 8.61776
head 8.69563 -2.88557 4.20055
rclavicle -6.05051e-015 -7.95139e-016
rhumerus -28.7848 -5.55943 -75.6346
rradius 63.4329
rwrist -1.33508
rhand -20.4689 10.9669
rfingers 7.12502
rthumb 5.88709 -18.9313
lclavicle -6.05051e-015 -7.95139e-016
lhumerus -40.4989 6.94209 60.402
lradius 65.4783
lwrist 8.2254
lhand -25.9851 22.2392
lfingers 7.12502
lthumb 0.560132 52.2182
rfemur -2.68944 3.94405 21.022
rtibia 22.7556
rfoot 3.98161 4.71214
rtoes 10.2716
lfemur -9.42344 -10.6193 -16.7668
ltibia 27.1256
lfoot 6.23617 1.59542
ltoes -6.94613
410
root -0.749824 18.5213 19.545 -1.46378 4.82402 2.27858
lowerback 2.43041 0.287352 -2.39294
upperback 0.227483 0.33578 1.40494
thorax -1.15149 0.182462 2.77375
lowerneck -12.9125 -4.8678 -11.7709
upperneck 19.0561 -5.93933 8.29698
head 8.67607 -2.8416 4.08449
rclavicle -1.48234e-014 -1.03368e-014
rhumerus -28.8908 -6.24986 -75.4406
rradius 61.6506
rwrist -2.58122
rhand -19.9722 10.624
rfingers 7.12502
rthumb 6.36665 -19.2603
lclavicle -1.48234e-014 -1.03368e-014
lhumerus -40.6533 6.83597 60.6435
lradius 63.9993
lwrist 7.81792
lhand -26.5662 23.3865
lfingers 7.12502
lthumb -0.00106319 53.3662
rfemur -2.97191 4.12611 20.8238
rtibia 22.4946
rfoot 3.92606 4.98954
rtoes 9.57323
lfemur -9.47619 -10.3518 -16.8342
ltibia 26.5025
lfoot 6.28689 1.70697
ltoes -6.66583
